<?xml version="1.0" encoding="UTF-8"?>
<svg width="128px" height="15px" viewBox="0 0 128 15" version="1.1" xmlns="http://www.w3.org/2000/svg" xmlns:xlink="http://www.w3.org/1999/xlink">
    <title>Group</title>
    <g id="Page-1" stroke="none" stroke-width="1" fill="none" fill-rule="evenodd">
        <g id="1A---Status:-not-ready" transform="translate(-20.000000, -44.000000)" fill="#162B2C">
            <g id="Group" transform="translate(20.000000, 44.000000)">
                <path d="M18.1701382,14.2732237 C18.1701382,14.3580921 18.144505,14.4322368 18.093305,14.4958224 C18.0420719,14.5594408 17.9566282,14.6125 17.8372057,14.6548355 C17.7175514,14.6973684 17.5554732,14.7289474 17.350607,14.7501974 C17.1457408,14.77125 16.8852367,14.7820066 16.5695255,14.7820066 C16.2450049,14.7820066 15.9804937,14.77125 15.7756274,14.7501974 C15.5707281,14.7289474 15.4062655,14.6973684 15.282637,14.6548355 C15.1587767,14.6125 15.073333,14.5594408 15.0265376,14.4958224 C14.9795105,14.4322368 14.9560962,14.3580921 14.9560962,14.2732237 L14.9560962,7.54506579 C14.9560962,7.16351974 14.9196999,6.81592105 14.8472714,6.50213816 C14.7746442,6.18858553 14.6636005,5.91927632 14.5143389,5.69450658 C14.3648787,5.46996711 14.1770018,5.29608553 13.9509071,5.17305921 C13.7246137,5.05023026 13.453512,4.98865132 13.1378008,4.98865132 C12.7536683,4.98865132 12.3650981,5.13707237 11.9725537,5.43381579 C11.5798106,5.73069079 11.1530556,6.163125 10.69209,6.73108553 L10.69209,14.2732237 C10.69209,14.3580921 10.6664569,14.4322368 10.6152569,14.4958224 C10.5640238,14.5594408 10.4763943,14.6125 10.3527658,14.6548355 C10.2289056,14.6973684 10.0646417,14.7289474 9.8597423,14.7501974 C9.65487607,14.77125 9.39877671,14.7820066 9.09144424,14.7820066 C8.77553428,14.7820066 8.5152621,14.77125 8.31036274,14.7501974 C8.10549651,14.7289474 7.94103389,14.6973684 7.81737232,14.6548355 C7.69354515,14.6125 7.60611436,14.5594408 7.55488124,14.4958224 C7.50364812,14.4322368 7.47804812,14.3580921 7.47804812,14.2732237 L7.47804812,7.54506579 C7.47804812,7.16351974 7.44161863,6.81592105 7.36922329,6.50213816 C7.296563,6.18858553 7.18773816,5.91927632 7.04268254,5.69450658 C6.8974282,5.46996711 6.70975006,5.29608553 6.47928383,5.17305921 C6.24878448,5.05023026 5.97986856,4.98865132 5.67256921,4.98865132 C5.27979301,4.98865132 4.88708305,5.13707237 4.49453868,5.43381579 C4.10176248,5.73069079 3.67921345,6.163125 3.22682536,6.73108553 L3.22682536,14.2732237 C3.22682536,14.3580921 3.20119224,14.4322368 3.14999224,14.4958224 C3.09875912,14.5594408 3.01112962,14.6125 2.88750116,14.6548355 C2.76364088,14.6973684 2.59937697,14.7289474 2.39451074,14.7501974 C2.18961138,14.77125 1.92914049,14.7820066 1.61342924,14.7820066 C1.29748616,14.7820066 1.03718085,14.77125 0.832314618,14.7501974 C0.627448383,14.7289474 0.46298577,14.6973684 0.339324191,14.6548355 C0.215463907,14.6125 0.128033118,14.5594408 0.0768331177,14.4958224 C0.0256,14.4322368 0,14.3580921 0,14.2732237 L0,2.92822368 C0,2.84355263 0.0211953428,2.76924342 0.0640165589,2.705625 C0.106639069,2.64200658 0.183472186,2.58921053 0.294515912,2.54664474 C0.405327814,2.50430921 0.548396378,2.47253289 0.723456662,2.45128289 C0.898318241,2.43019737 1.11821992,2.41944079 1.38292988,2.41944079 C1.65605175,2.41944079 1.88231203,2.43019737 2.06157827,2.45128289 C2.2408445,2.47253289 2.37950841,2.50430921 2.47773558,2.54664474 C2.57579715,2.58921053 2.64620543,2.64200658 2.68902665,2.705625 C2.73164916,2.76924342 2.75304321,2.84355263 2.75304321,2.92822368 L2.75304321,4.23822368 C3.38469754,3.55996711 4.01433169,3.05121711 4.64178008,2.71197368 C5.26922846,2.37299342 5.92426391,2.20325658 6.60731695,2.20325658 C7.07669444,2.20325658 7.49927658,2.25213816 7.87499715,2.34950658 C8.25055213,2.44710526 8.58567038,2.58700658 8.88018629,2.76924342 C9.1747022,2.95164474 9.42858266,3.16986842 9.64205951,3.42424342 C9.85537076,3.67861842 10.034637,3.96279605 10.1798582,4.27638158 C10.5212357,3.91194079 10.8563539,3.598125 11.1850805,3.33523026 C11.5135752,3.07246711 11.8381288,2.85825658 12.1582448,2.69289474 C12.4783607,2.52756579 12.7984766,2.40476974 13.1185925,2.32404605 C13.4387415,2.24358553 13.7652492,2.20325658 14.0981485,2.20325658 C14.8578691,2.20325658 15.4981009,2.33042763 16.0189102,2.58480263 C16.5395208,2.83917763 16.9600497,3.18476974 17.2801987,3.62138158 C17.6002815,4.05819079 17.8285951,4.56894737 17.9652388,5.15398026 C18.1017169,5.73904605 18.1701382,6.35805921 18.1701382,7.01088816 L18.1701382,14.2732237" id="Fill-1"></path>
                <path d="M41.5372419,3.98384868 C41.5372419,4.28911184 41.5286313,4.53927632 41.5117413,4.73427632 C41.4945201,4.92940789 41.4686882,5.08203947 41.4349082,5.19213816 C41.4004657,5.30243421 41.3557568,5.37875 41.3004502,5.42105263 C41.2448124,5.46361842 41.1742717,5.48467105 41.0891591,5.48467105 C41.0206054,5.48467105 40.9437723,5.46996711 40.8586598,5.44016447 C40.773216,5.41055921 40.6771746,5.37875 40.5705356,5.34476974 C40.4635653,5.31098684 40.3463286,5.27914474 40.218163,5.249375 C40.0903286,5.21976974 39.9492471,5.20483553 39.7955809,5.20483553 C39.616414,5.20483553 39.4372471,5.24101974 39.2580802,5.31296053 C39.0785821,5.38509868 38.8931229,5.49740132 38.7010401,5.65003289 C38.5089573,5.80266447 38.3082639,6.00611842 38.0989599,6.26049342 C37.8896559,6.51486842 37.6657801,6.82868421 37.4266701,7.20171053 L37.4266701,14.2732237 C37.4266701,14.3580921 37.4011695,14.4322368 37.349837,14.4958224 C37.2988357,14.5594408 37.2110737,14.6125 37.0875446,14.6548355 C36.9636843,14.6973684 36.7994204,14.7289474 36.5944217,14.7501974 C36.3897542,14.77125 36.1291177,14.7820066 35.8135058,14.7820066 C35.4975627,14.7820066 35.2372574,14.77125 35.0322587,14.7501974 C34.8275912,14.7289474 34.6629961,14.6973684 34.539467,14.6548355 C34.4156067,14.6125 34.3281759,14.5594408 34.2768435,14.4958224 C34.225511,14.4322368 34.2000103,14.3580921 34.2000103,14.2732237 L34.2000103,2.92822368 C34.2000103,2.84355263 34.2212057,2.76924342 34.2639276,2.705625 C34.3066494,2.64200658 34.3834825,2.58921053 34.4944269,2.54664474 C34.6053713,2.50430921 34.7484398,2.47253289 34.9236326,2.45128289 C35.0984942,2.43019737 35.3180647,2.41944079 35.5830065,2.41944079 C35.8558965,2.41944079 36.0824217,2.43019737 36.2615886,2.45128289 C36.4407555,2.47253289 36.5795188,2.50430921 36.6778784,2.54664474 C36.7759069,2.58921053 36.8461164,2.64200658 36.8891695,2.705625 C36.9315602,2.76924342 36.9530867,2.84355263 36.9530867,2.92822368 L36.9530867,4.34 C37.2518085,3.91611842 37.5333092,3.56631579 37.798251,3.29069079 C38.0625304,3.01523026 38.3145563,2.79684211 38.5536662,2.63565789 C38.792445,2.47473684 39.031555,2.36226974 39.2706649,2.29865132 C39.5097749,2.23503289 39.7488849,2.20325658 39.9876636,2.20325658 C40.098608,2.20325658 40.218163,2.20957237 40.3463286,2.22233553 C40.4744942,2.23503289 40.6066339,2.25631579 40.7434101,2.28592105 C40.8798551,2.31575658 40.9994101,2.34950658 41.1017439,2.38766447 C41.2044088,2.42578947 41.2789237,2.46618421 41.3259508,2.50851974 C41.3726468,2.55101974 41.4070893,2.59753289 41.4282846,2.64842105 C41.4494799,2.69927632 41.4686882,2.76924342 41.4859094,2.85825658 C41.5031307,2.94730263 41.5157154,3.08082237 41.524326,3.25888158 C41.5329366,3.43697368 41.5372419,3.67861842 41.5372419,3.98384868" id="Fill-3"></path>
                <path d="M46.7486468,14.2732237 C46.7486468,14.3580921 46.7231462,14.4322368 46.6718137,14.4958224 C46.6208124,14.5594408 46.5330505,14.6125 46.4095213,14.6548355 C46.2856611,14.6973684 46.1213972,14.7289474 45.9163984,14.7501974 C45.7117309,14.77125 45.4510944,14.7820066 45.1354825,14.7820066 C44.8195395,14.7820066 44.5592342,14.77125 44.3542354,14.7501974 C44.1495679,14.7289474 43.9849728,14.6973684 43.8614437,14.6548355 C43.7375834,14.6125 43.6501527,14.5594408 43.5988202,14.4958224 C43.5474877,14.4322368 43.5219871,14.3580921 43.5219871,14.2732237 L43.5219871,2.95365132 C43.5219871,2.86898026 43.5474877,2.79467105 43.5988202,2.73105263 C43.6501527,2.6675 43.7375834,2.61243421 43.8614437,2.56572368 C43.9849728,2.51924342 44.1495679,2.48302632 44.3542354,2.45763158 C44.5592342,2.43220395 44.8195395,2.41944079 45.1354825,2.41944079 C45.4510944,2.41944079 45.7117309,2.43220395 45.9163984,2.45763158 C46.1213972,2.48302632 46.2856611,2.51924342 46.4095213,2.56572368 C46.5330505,2.61243421 46.6208124,2.6675 46.6718137,2.73105263 C46.7231462,2.79467105 46.7486468,2.86898026 46.7486468,2.95365132 L46.7486468,14.2732237" id="Fill-4"></path>
                <path d="M60.8726934,14.2732237 C60.8726934,14.3580921 60.8468616,14.4322368 60.7958603,14.4958224 C60.7445278,14.5594408 60.6590841,14.6125 60.5395291,14.6548355 C60.4199741,14.6973684 60.2557102,14.7289474 60.0467374,14.7501974 C59.8374334,14.77125 59.5791151,14.7820066 59.2721138,14.7820066 C58.9561708,14.7820066 58.6935472,14.77125 58.4845744,14.7501974 C58.2752704,14.7289474 58.1110065,14.6973684 57.9914515,14.6548355 C57.8718965,14.6125 57.7864528,14.5594408 57.7354515,14.4958224 C57.684119,14.4322368 57.6586184,14.3580921 57.6586184,14.2732237 L57.6586184,7.79947368 C57.6586184,7.24838816 57.6178836,6.81592105 57.5367451,6.50213816 C57.4556067,6.18858553 57.33837,5.91927632 57.1847038,5.69450658 C57.0310375,5.46996711 56.8326624,5.29608553 56.5892471,5.17305921 C56.346163,5.05023026 56.0620129,4.98865132 55.7377904,4.98865132 C55.3281242,4.98865132 54.9138215,5.13707237 54.4958758,5.43381579 C54.0772678,5.73069079 53.6421009,6.163125 53.1897128,6.73108553 L53.1897128,14.2732237 C53.1897128,14.3580921 53.163881,14.4322368 53.1128797,14.4958224 C53.0615472,14.5594408 52.9741164,14.6125 52.8502561,14.6548355 C52.7263959,14.6973684 52.562132,14.7289474 52.3574644,14.7501974 C52.1524657,14.77125 51.8918292,14.7820066 51.5762173,14.7820066 C51.2602743,14.7820066 50.999969,14.77125 50.7949702,14.7501974 C50.5903027,14.7289474 50.4257076,14.6973684 50.3021785,14.6548355 C50.1783182,14.6125 50.0908875,14.5594408 50.039555,14.4958224 C49.9885537,14.4322368 49.9627219,14.3580921 49.9627219,14.2732237 L49.9627219,2.92822368 C49.9627219,2.84355263 49.9839172,2.76924342 50.0269702,2.705625 C50.0693609,2.64200658 50.146194,2.58921053 50.2574696,2.54664474 C50.3680828,2.50430921 50.5111514,2.47253289 50.6863441,2.45128289 C50.8612057,2.43019737 51.0811074,2.41944079 51.345718,2.41944079 C51.6189392,2.41944079 51.8451332,2.43019737 52.0243001,2.45128289 C52.2037982,2.47253289 52.3422303,2.50430921 52.4405899,2.54664474 C52.5386184,2.58921053 52.6091591,2.64200658 52.651881,2.705625 C52.6946028,2.76924342 52.7157982,2.84355263 52.7157982,2.92822368 L52.7157982,4.23822368 C53.3473532,3.55996711 53.989837,3.05121711 54.6429185,2.71197368 C55.296,2.37299342 55.9765692,2.20325658 56.6852885,2.20325658 C57.4622303,2.20325658 58.1172988,2.33042763 58.6508254,2.58480263 C59.1843519,2.83917763 59.6155446,3.18476974 59.9440724,3.62138158 C60.2726003,4.05819079 60.5097232,4.56894737 60.6547788,5.15398026 C60.7998344,5.73904605 60.8726934,6.44292763 60.8726934,7.26526316 L60.8726934,14.2732237" id="Fill-5"></path>
                <path d="M82.2054748,14.2732237 C82.2054748,14.3580921 82.1799741,14.4322368 82.1286417,14.4958224 C82.0773092,14.5594408 81.9921966,14.6125 81.8726417,14.6548355 C81.7530867,14.6973684 81.5908098,14.7289474 81.3861423,14.7501974 C81.1811436,14.77125 80.9205071,14.7820066 80.6048952,14.7820066 C80.2803415,14.7820066 80.0157309,14.77125 79.8110634,14.7501974 C79.6060647,14.7289474 79.4418008,14.6973684 79.3179405,14.6548355 C79.1940802,14.6125 79.1086365,14.5594408 79.0619405,14.4958224 C79.0149133,14.4322368 78.9913997,14.3580921 78.9913997,14.2732237 L78.9913997,7.54506579 C78.9913997,7.16351974 78.9549702,6.81592105 78.8827736,6.50213816 C78.8099146,6.18858553 78.6989702,5.91927632 78.5496093,5.69450658 C78.4002484,5.46996711 78.2124709,5.29608553 77.9862768,5.17305921 C77.7600828,5.05023026 77.4888486,4.98865132 77.1732367,4.98865132 C76.7890712,4.98865132 76.4006003,5.13707237 76.0078241,5.43381579 C75.615379,5.73069079 75.1884916,6.163125 74.7274929,6.73108553 L74.7274929,14.2732237 C74.7274929,14.3580921 74.7019922,14.4322368 74.6506598,14.4958224 C74.5993273,14.5594408 74.5118965,14.6125 74.3880362,14.6548355 C74.2641759,14.6973684 74.099912,14.7289474 73.8952445,14.7501974 C73.6902458,14.77125 73.4342458,14.7820066 73.1269133,14.7820066 C72.8109702,14.7820066 72.5506649,14.77125 72.3456662,14.7501974 C72.1409987,14.7289474 71.9764036,14.6973684 71.8528745,14.6548355 C71.7290142,14.6125 71.6415834,14.5594408 71.590251,14.4958224 C71.5389185,14.4322368 71.5134179,14.3580921 71.5134179,14.2732237 L71.5134179,7.54506579 C71.5134179,7.16351974 71.4769884,6.81592105 71.4044605,6.50213816 C71.3319327,6.18858553 71.2229754,5.91927632 71.0779198,5.69450658 C70.9328642,5.46996711 70.7450867,5.29608553 70.5145873,5.17305921 C70.284088,5.05023026 70.0151721,4.98865132 69.7078396,4.98865132 C69.3150634,4.98865132 68.9222872,5.13707237 68.5298422,5.43381579 C68.137066,5.73069079 67.7144838,6.163125 67.2620957,6.73108553 L67.2620957,14.2732237 C67.2620957,14.3580921 67.2365951,14.4322368 67.1852626,14.4958224 C67.1342613,14.5594408 67.0464994,14.6125 66.9229702,14.6548355 C66.79911,14.6973684 66.6348461,14.7289474 66.4298473,14.7501974 C66.2251798,14.77125 65.9645433,14.7820066 65.6489314,14.7820066 C65.3329884,14.7820066 65.0726831,14.77125 64.8676843,14.7501974 C64.6626856,14.7289474 64.4984217,14.6973684 64.3745614,14.6548355 C64.2510323,14.6125 64.1632704,14.5594408 64.1122691,14.4958224 C64.0609366,14.4322368 64.035436,14.3580921 64.035436,14.2732237 L64.035436,2.92822368 C64.035436,2.84355263 64.0566313,2.76924342 64.0993532,2.705625 C64.142075,2.64200658 64.2189082,2.58921053 64.3298525,2.54664474 C64.4407969,2.50430921 64.5838655,2.47253289 64.758727,2.45128289 C64.9335886,2.43019737 65.1534903,2.41944079 65.4184321,2.41944079 C65.6913221,2.41944079 65.9178473,2.43019737 66.0970142,2.45128289 C66.2761811,2.47253289 66.4149444,2.50430921 66.5129728,2.54664474 C66.6113325,2.58921053 66.681542,2.64200658 66.7242639,2.705625 C66.7669858,2.76924342 66.7885123,2.84355263 66.7885123,2.92822368 L66.7885123,4.23822368 C67.4200673,3.55996711 68.0496352,3.05121711 68.677216,2.71197368 C69.3044657,2.37299342 69.9595343,2.20325658 70.6427529,2.20325658 C71.112031,2.20325658 71.5346132,2.25213816 71.9104994,2.34950658 C72.2860543,2.44710526 72.6212057,2.58700658 72.9156223,2.76924342 C73.2100388,2.95164474 73.4640517,3.16986842 73.6773299,3.42424342 C73.8909392,3.67861842 74.0701061,3.96279605 74.2151617,4.27638158 C74.5566054,3.91194079 74.8917568,3.598125 75.2202846,3.33523026 C75.5491436,3.07246711 75.8733661,2.85825658 76.1936145,2.69289474 C76.5138629,2.52756579 76.8337801,2.40476974 77.1540285,2.32404605 C77.4742768,2.24358553 77.8004864,2.20325658 78.1336507,2.20325658 C78.8933713,2.20325658 79.5335369,2.33042763 80.0541475,2.58480263 C80.5747581,2.83917763 80.9953532,3.18476974 81.3156016,3.62138158 C81.6358499,4.05819079 81.864031,4.56894737 82.0004761,5.15398026 C82.1372523,5.73904605 82.2054748,6.35805921 82.2054748,7.01088816 L82.2054748,14.2732237" id="Fill-6"></path>
                <path d="M88.5952083,14.2732237 C88.5952083,14.3580921 88.5697076,14.4322368 88.5183752,14.4958224 C88.4670427,14.5594408 88.3796119,14.6125 88.2557516,14.6548355 C88.1318913,14.6973684 87.9676274,14.7289474 87.7629599,14.7501974 C87.5579612,14.77125 87.2973247,14.7820066 86.9817128,14.7820066 C86.6657697,14.7820066 86.4054644,14.77125 86.2007969,14.7501974 C85.9957982,14.7289474 85.8312031,14.6973684 85.707674,14.6548355 C85.5838137,14.6125 85.4963829,14.5594408 85.4450505,14.4958224 C85.3940492,14.4322368 85.3682173,14.3580921 85.3682173,14.2732237 L85.3682173,2.95365132 C85.3682173,2.86898026 85.3940492,2.79467105 85.4450505,2.73105263 C85.4963829,2.6675 85.5838137,2.61243421 85.707674,2.56572368 C85.8312031,2.51924342 85.9957982,2.48302632 86.2007969,2.45763158 C86.4054644,2.43220395 86.6657697,2.41944079 86.9817128,2.41944079 C87.2973247,2.41944079 87.5579612,2.43220395 87.7629599,2.45763158 C87.9676274,2.48302632 88.1318913,2.51924342 88.2557516,2.56572368 C88.3796119,2.61243421 88.4670427,2.6675 88.5183752,2.73105263 C88.5697076,2.79467105 88.5952083,2.86898026 88.5952083,2.95365132 L88.5952083,14.2732237" id="Fill-7"></path>
                <path d="M102.718924,14.2732237 C102.718924,14.3580921 102.693423,14.4322368 102.642091,14.4958224 C102.590758,14.5594408 102.505314,14.6125 102.386091,14.6548355 C102.266204,14.6973684 102.10194,14.7289474 101.892968,14.7501974 C101.683664,14.77125 101.425677,14.7820066 101.118344,14.7820066 C100.802401,14.7820066 100.539777,14.77125 100.330805,14.7501974 C100.121501,14.7289474 99.9572367,14.6973684 99.8376818,14.6548355 C99.7181268,14.6125 99.6330142,14.5594408 99.5816818,14.4958224 C99.5303493,14.4322368 99.5048486,14.3580921 99.5048486,14.2732237 L99.5048486,7.79947368 C99.5048486,7.24838816 99.4641138,6.81592105 99.3833066,6.50213816 C99.301837,6.18858553 99.1849314,5.91927632 99.0312652,5.69450658 C98.877599,5.46996711 98.6788926,5.29608553 98.4358085,5.17305921 C98.1923933,5.05023026 97.9085744,4.98865132 97.5840207,4.98865132 C97.1743545,4.98865132 96.7603829,5.13707237 96.3421061,5.43381579 C95.9238292,5.73069079 95.4883312,6.163125 95.0359431,6.73108553 L95.0359431,14.2732237 C95.0359431,14.3580921 95.0104424,14.4322368 94.95911,14.4958224 C94.9077775,14.5594408 94.8203467,14.6125 94.6968176,14.6548355 C94.5729573,14.6973684 94.4086934,14.7289474 94.2036947,14.7501974 C93.998696,14.77125 93.7383907,14.7820066 93.4224476,14.7820066 C93.1065045,14.7820066 92.8465304,14.77125 92.6415317,14.7501974 C92.436533,14.7289474 92.2722691,14.6973684 92.1484088,14.6548355 C92.0245485,14.6125 91.9371177,14.5594408 91.8861164,14.4958224 C91.834784,14.4322368 91.8092833,14.3580921 91.8092833,14.2732237 L91.8092833,2.92822368 C91.8092833,2.84355263 91.8304787,2.76924342 91.8732005,2.705625 C91.9159224,2.64200658 91.9927555,2.58921053 92.1036999,2.54664474 C92.2146442,2.50430921 92.3577128,2.47253289 92.5325744,2.45128289 C92.707436,2.43019737 92.9273376,2.41944079 93.1919483,2.41944079 C93.4651695,2.41944079 93.6913635,2.43019737 93.8708616,2.45128289 C94.0500285,2.47253289 94.1887917,2.50430921 94.2868202,2.54664474 C94.3848486,2.58921053 94.4553894,2.64200658 94.4981113,2.705625 C94.5408331,2.76924342 94.5623596,2.84355263 94.5623596,2.92822368 L94.5623596,4.23822368 C95.1939146,3.55996711 95.8363984,3.05121711 96.4894799,2.71197368 C97.1422303,2.37299342 97.8231307,2.20325658 98.5318499,2.20325658 C99.3084605,2.20325658 99.9635291,2.33042763 100.497387,2.58480263 C101.030582,2.83917763 101.461775,3.18476974 101.790634,3.62138158 C102.119162,4.05819079 102.355953,4.56894737 102.50134,5.15398026 C102.646396,5.73904605 102.718924,6.44292763 102.718924,7.26526316 L102.718924,14.2732237" id="Fill-8"></path>
                <path d="M113.513314,6.69292763 C113.052647,6.11644737 112.610856,5.67542763 112.188274,5.37019737 C111.765692,5.06496711 111.323902,4.91230263 110.862903,4.91230263 C110.444626,4.91230263 110.083643,5.01625 109.780947,5.22394737 C109.477589,5.43177632 109.234505,5.70944079 109.051032,6.05700658 C108.867229,6.40476974 108.730784,6.79269737 108.641035,7.22075658 C108.551617,7.64901316 108.506577,8.08782895 108.506577,8.53713816 C108.506577,9.01210526 108.545325,9.47417763 108.621827,9.92348684 C108.698991,10.3729934 108.824507,10.7736513 108.9997,11.1253618 C109.174561,11.4773355 109.407379,11.7593421 109.69749,11.9711842 C109.987602,12.1832237 110.354877,12.2891447 110.798655,12.2891447 C111.020543,12.2891447 111.23614,12.2573684 111.445444,12.1937829 C111.654417,12.1301645 111.868026,12.0264145 112.085609,11.8821711 C112.303524,11.7380921 112.5274,11.5495066 112.757899,11.3161842 C112.988398,11.0830592 113.240093,10.7969079 113.513314,10.4576316 L113.513314,6.69292763 Z M116.714805,14.2732237 C116.714805,14.3666447 116.693278,14.4449671 116.650556,14.5085855 C116.607834,14.5721711 116.535307,14.6252303 116.432973,14.6675658 C116.330639,14.7099013 116.191545,14.7394737 116.016683,14.7565789 C115.841821,14.7734211 115.626225,14.7820066 115.370225,14.7820066 C115.097004,14.7820066 114.875115,14.7734211 114.704228,14.7565789 C114.53334,14.7394737 114.394908,14.7099013 114.288269,14.6675658 C114.181299,14.6252303 114.104466,14.5721711 114.05777,14.5085855 C114.010743,14.4449671 113.987229,14.3666447 113.987229,14.2732237 L113.987229,13.0141118 C113.398065,13.6417105 112.781413,14.1291447 112.136942,14.4767434 C111.49214,14.8243421 110.777459,14.9981908 109.992238,14.9981908 C109.121242,14.9981908 108.385035,14.8306908 107.783286,14.4958224 C107.181537,14.1609868 106.690401,13.7095066 106.310541,13.1412829 C105.93068,12.5733553 105.655472,11.9097697 105.484916,11.1508224 C105.314028,10.3920724 105.228585,9.59276316 105.228585,8.75338816 C105.228585,7.74440789 105.337542,6.83723684 105.555125,6.03154605 C105.77304,5.22611842 106.09097,4.53927632 106.509247,3.97115132 C106.927193,3.40319079 107.448135,2.96638158 108.07141,2.66115132 C108.694354,2.35588816 109.411353,2.20325658 110.222406,2.20325658 C110.862903,2.20325658 111.443125,2.33259868 111.964067,2.59118421 C112.484678,2.84990132 113.001314,3.22927632 113.513314,3.72947368 L113.513314,0.546875 C113.513314,0.462236842 113.536828,0.385921053 113.583855,0.317960526 C113.630551,0.250197368 113.715995,0.192927632 113.839855,0.14625 C113.963715,0.0997368421 114.127979,0.0636184211 114.332978,0.038125 C114.537977,0.0127302632 114.798282,0 115.114225,0 C115.429837,0 115.690142,0.0127302632 115.895141,0.038125 C116.10014,0.0636184211 116.262085,0.0997368421 116.38164,0.14625 C116.501195,0.192927632 116.586639,0.250197368 116.637972,0.317960526 C116.688973,0.385921053 116.714805,0.462236842 116.714805,0.546875 L116.714805,14.2732237 L116.714805,14.2732237 Z" id="Fill-9"></path>
                <path d="M127.995695,11.0681908 C127.995695,11.7126316 127.874153,12.2807895 127.630737,12.7724671 C127.387653,13.2642763 127.043891,13.6754605 126.600114,14.0061842 C126.156005,14.3368421 125.631089,14.5848684 125.025035,14.7501974 C124.418649,14.9155592 123.761594,14.9981908 123.053206,14.9981908 C122.625987,14.9981908 122.218639,14.9664474 121.830168,14.9028289 C121.441697,14.8392105 121.093961,14.7585526 120.786629,14.6611842 C120.479296,14.5637829 120.223296,14.4640461 120.018298,14.3623026 C119.81363,14.2605592 119.663938,14.1651316 119.570215,14.0761184 C119.47616,13.9871053 119.403633,13.8472039 119.352631,13.6563816 C119.301299,13.465625 119.275798,13.1838158 119.275798,12.810625 C119.275798,12.5648026 119.284078,12.3676645 119.301299,12.2191776 C119.318189,12.0709539 119.34369,11.9521053 119.378132,11.8630592 C119.412243,11.7740461 119.454965,11.7148026 119.506298,11.6850329 C119.557299,11.6553618 119.621216,11.6404605 119.698049,11.6404605 C119.792103,11.6404605 119.930867,11.6935526 120.114339,11.7994737 C120.297811,11.905625 120.525992,12.0220724 120.799545,12.1492434 C121.072435,12.2764145 121.390365,12.3952632 121.753335,12.5053618 C122.115974,12.6156908 122.527959,12.6706908 122.988957,12.6706908 C123.279069,12.6706908 123.537387,12.6410855 123.763581,12.5816776 C123.989775,12.5224671 124.186163,12.4375987 124.352745,12.3273026 C124.519327,12.2172039 124.645175,12.0773026 124.730618,11.9075658 C124.815731,11.7380921 124.858453,11.543125 124.858453,11.3225329 C124.858453,11.0681908 124.779633,10.8499342 124.621661,10.6675 C124.46369,10.4852961 124.254717,10.3262829 123.99408,10.1905921 C123.733775,10.0550658 123.439358,9.92786184 123.110831,9.80898026 C122.781972,9.69036184 122.444833,9.55901316 122.099084,9.41473684 C121.753335,9.27065789 121.416197,9.10532895 121.087669,8.91868421 C120.75881,8.73226974 120.464393,8.50335526 120.204088,8.23190789 C119.943451,7.960625 119.734479,7.63411184 119.576507,7.25259868 C119.418536,6.87098684 119.339715,6.413125 119.339715,5.87894737 C119.339715,5.33641447 119.446354,4.83819079 119.659964,4.38447368 C119.873242,3.93098684 120.180243,3.54309211 120.58163,3.22072368 C120.983017,2.89858553 121.471834,2.64842105 122.048083,2.47032895 C122.624,2.29230263 123.270789,2.20325658 123.987788,2.20325658 C124.346453,2.20325658 124.694189,2.22868421 125.031327,2.27953947 C125.368466,2.33042763 125.673811,2.39401316 125.947032,2.47032895 C126.220254,2.54664474 126.450753,2.62930921 126.63853,2.71838816 C126.825977,2.80740132 126.960435,2.88368421 127.041904,2.94730263 C127.122712,3.01085526 127.180336,3.07447368 127.214779,3.13805921 C127.248559,3.20164474 127.274391,3.27796053 127.291612,3.36700658 C127.308502,3.45605263 127.323405,3.56631579 127.336321,3.69769737 C127.349237,3.82921053 127.355529,3.99240132 127.355529,4.18736842 C127.355529,4.41631579 127.349237,4.60289474 127.336321,4.74697368 C127.323405,4.89125 127.30221,5.00575658 127.272404,5.09039474 C127.242266,5.17523026 127.201863,5.2325 127.15053,5.26207237 C127.099529,5.291875 127.039586,5.30657895 126.971364,5.30657895 C126.89453,5.30657895 126.774975,5.26207237 126.612699,5.17305921 C126.450753,5.08404605 126.248072,4.98865132 126.004657,4.88690789 C125.761242,4.78513158 125.479741,4.68973684 125.159493,4.60069079 C124.839245,4.51167763 124.474287,4.46717105 124.064621,4.46717105 C123.77451,4.46717105 123.522484,4.49694079 123.309206,4.55621711 C123.095596,4.615625 122.920735,4.70049342 122.78429,4.81055921 C122.647514,4.92085526 122.54518,5.05023026 122.476957,5.19845395 C122.408404,5.34694079 122.374292,5.50595395 122.374292,5.67542763 C122.374292,5.93835526 122.455431,6.15878289 122.617708,6.33680921 C122.779653,6.51486842 122.993263,6.67184211 123.257873,6.80736842 C123.522484,6.943125 123.823524,7.07032895 124.160662,7.18898026 C124.497801,7.30779605 124.839245,7.43697368 125.184994,7.576875 C125.530743,7.71680921 125.872186,7.88016447 126.209656,8.06657895 C126.546463,8.25315789 126.847503,8.48210526 127.112114,8.75338816 C127.376724,9.02483553 127.590334,9.34914474 127.752611,9.72634868 C127.914556,10.1036842 127.995695,10.5510526 127.995695,11.0681908" id="Fill-10"></path>
                <path d="M28.3097583,6.69292763 C27.8487928,6.11644737 27.4070023,5.67542763 26.9844533,5.37019737 C26.5619374,5.06496711 26.1201138,4.91230263 25.6591483,4.91230263 C25.2408052,4.91230263 24.8800538,5.01625 24.5771591,5.22394737 C24.2739995,5.43177632 24.0307167,5.70944079 23.8472776,6.05700658 C23.6635736,6.40476974 23.5271286,6.79269737 23.437512,7.22075658 C23.3478624,7.64901316 23.3030541,8.08782895 23.3030541,8.53713816 C23.3030541,9.01210526 23.3414706,9.47417763 23.4183038,9.92348684 C23.4951369,10.3729934 23.6209842,10.7736513 23.7960445,11.1253618 C23.9709061,11.4773355 24.2036243,11.7593421 24.4939012,11.9711842 C24.7840124,12.1832237 25.1511555,12.2891447 25.5951317,12.2891447 C25.8170204,12.2891447 26.0324843,12.2573684 26.2417884,12.1937829 C26.4508605,12.1301645 26.6643374,12.0264145 26.8820202,11.8821711 C27.099703,11.7380921 27.3237775,11.5495066 27.5542437,11.3161842 C27.7847762,11.0830592 28.0364709,10.7969079 28.3097583,10.4576316 L28.3097583,6.69292763 Z M31.5109837,14.2732237 C31.5109837,14.3666447 31.4895565,14.4449671 31.446934,14.5085855 C31.4041459,14.5721711 31.3317175,14.6252303 31.2292843,14.6675658 C31.1268512,14.7099013 30.9879886,14.7394737 30.813127,14.7565789 C30.6380668,14.7734211 30.4225697,14.7820066 30.1664704,14.7820066 C29.8931498,14.7820066 29.6712611,14.7734211 29.5006054,14.7565789 C29.3297511,14.7394737 29.1911203,14.7099013 29.0844812,14.6675658 C28.9776435,14.6252303 28.9007772,14.5721711 28.8539819,14.5085855 C28.8069547,14.4449671 28.7835736,14.3666447 28.7835736,14.2732237 L28.7835736,13.0141118 C28.1945087,13.6417105 27.5776911,14.1291447 26.9332202,14.4767434 C26.2885837,14.8243421 25.5737045,14.9981908 24.7884171,14.9981908 C23.9176859,14.9981908 23.1814127,14.8306908 22.5795643,14.4958224 C21.977749,14.1609868 21.4867457,13.7095066 21.1070179,13.1412829 C20.7270913,12.5733553 20.4517837,11.9097697 20.2811281,11.1508224 C20.1102406,10.3920724 20.0249956,9.59276316 20.0249956,8.75338816 C20.0249956,7.74440789 20.1338204,6.83723684 20.3515364,6.03154605 C20.5692191,5.22611842 20.8871493,4.53927632 21.3054924,3.97115132 C21.7236367,3.40319079 22.2444792,2.96638158 22.8676885,2.66115132 C23.4906991,2.35588816 24.2077972,2.20325658 25.0188833,2.20325658 C25.6591483,2.20325658 26.2396026,2.33259868 26.7603788,2.59118421 C27.2809563,2.84990132 27.7975928,3.22927632 28.3097583,3.72947368 L28.3097583,2.98108553 C28.3097583,2.89644737 28.3331726,2.82013158 28.3801666,2.75217105 C28.4269951,2.68440789 28.5124719,2.62713816 28.6362991,2.58046053 C28.7599607,2.53394737 28.9244233,2.49782895 29.1292895,2.47233553 C29.3341558,2.44694079 29.5944611,2.43421053 29.910371,2.43421053 C30.2260823,2.43421053 30.4865863,2.44694079 30.6914856,2.47233553 C30.8963519,2.49782895 31.0583969,2.53394737 31.1780843,2.58046053 C31.2975069,2.62713816 31.3829506,2.68440789 31.4341837,2.75217105 C31.4853837,2.82013158 31.5109837,2.89644737 31.5109837,2.98108553 L31.5109837,14.2732237 L31.5109837,14.2732237 Z" id="Fill-11"></path>
            </g>
        </g>
    </g>
</svg>